{
  "accessors": [
    {
      "bufferView": 1,
      "componentType": 5126,
      "count": 536,
      "max": [
        250,
        246.20198059082031,
        94.789497375488281
      ],
      "min": [
        -250,
        -246.20243835449219,
        -33.886940002441406
      ],
      "type": "VEC3"
    },
    {
      "bufferView": 1,
      "byteOffset": 6432,
      "componentType": 5126,
      "count": 536,
      "max": [
        1,
        0.98665052652359009,
        1
      ],
      "min": [
        -1,
        -0.98665440082550049,
        -1
      ],
      "type": "VEC3"
    },
    {
      "bufferView": 2,
      "componentType": 5126,
      "count": 536,
      "max": [
        1,
        1,
        0.8683311939239502,
        1
      ],
      "min": [
        -0.98679757118225098,
        -1,
        -0.86666774749755859,
        1
      ],
      "type": "VEC4"
    },
    {
      "bufferView": 0,
      "componentType": 5125,
      "count": 2052,
      "max": [
        535
      ],
      "min": [
        0
      ],
      "type": "SCALAR"
    }
  ],
  "asset": {
    "extras": {
      "author": "vitaliyborovskiy (https://sketchfab.com/vitaliyborovskiy)",
      "license": "CC-BY-4.0 (http://creativecommons.org/licenses/by/4.0/)",
      "source": "https://sketchfab.com/models/387e4943cf214dc293fe9f343e74fd74",
      "title": "My Cowboy Hat"
    },
    "generator": "Sketchfab-3.18.6",
    "version": "2.0"
  },
  "bufferViews": [
    {
      "buffer": 0,
      "byteLength": 8208,
      "byteOffset": 0,
      "name": "floatBufferViews",
      "target": 34963
    },
    {
      "buffer": 0,
      "byteLength": 12864,
      "byteOffset": 8208,
      "byteStride": 12,
      "name": "floatBufferViews",
      "target": 34962
    },
    {
      "buffer": 0,
      "byteLength": 8576,
      "byteOffset": 21072,
      "byteStride": 16,
      "name": "floatBufferViews",
      "target": 34962
    }
  ],
  "buffers": [
    {
      "byteLength": 29648,
      "uri": "scene.bin"
    }
  ],
  "materials": [
    {
      "doubleSided": true,
      "name": "Material_23",
      "pbrMetallicRoughness": {
        "baseColorFactor": [
          0.13788420200000001,
          0.0775947637,
          0.068384481600000005,
          1
        ],
        "metallicFactor": 0,
        "roughnessFactor": 0.59999999999999998
      }
    }
  ],
  "meshes": [
    {
      "name": "Hat_Material #23_0",
      "primitives": [
        {
          "attributes": {
            "NORMAL": 1,
            "POSITION": 0,
            "TANGENT": 2
          },
          "indices": 3,
          "material": 0,
          "mode": 4
        }
      ]
    }
  ],
  "nodes": [
    {
      "children": [
        1
      ],
      "name": "RootNode (gltf orientation matrix)",
      "rotation": [
        -0.70710678118654746,
        -0,
        -0,
        0.70710678118654757
      ]
    },
    {
      "children": [
        2
      ],
      "name": "RootNode (model correction matrix)"
    },
    {
      "children": [
        3
      ],
      "matrix": [
        1,
        0,
        0,
        0,
        0,
        0,
        1,
        0,
        0,
        -1,
        0,
        0,
        0,
        0,
        0,
        1
      ],
      "name": "ee0d9e9a32ea4314baf92ac4133e298d.fbx"
    },
    {
      "children": [
        4
      ],
      "name": "RootNode"
    },
    {
      "children": [
        5
      ],
      "matrix": [
        -0.10000000149011498,
        -1.224647003182728e-17,
        1.5099580490056353e-08,
        0,
        1.5099580490056353e-08,
        -4.4408921646750752e-17,
        0.10000000149011498,
        0,
        -1.2246464737871281e-17,
        0.10000000149011612,
        3.3306691235063064e-17,
        0,
        0,
        0,
        0,
        1
      ],
      "name": "Hat"
    },
    {
      "mesh": 0,
      "name": "Hat_Material #23_0"
    }
  ],
  "scene": 0,
  "scenes": [
    {
      "name": "OSG_Scene",
      "nodes": [
        0
      ]
    }
  ]
}

